<svg id="图层_1" data-name="图层 1" xmlns="http://www.w3.org/2000/svg" viewBox="0 0 303 752.5"><defs><style>.cls-1,.cls-2{fill:#f2f2f2;}.cls-2{font-size:54.99px;font-family:TrajanPro3-Regular, Trajan Pro 3;}.cls-3{letter-spacing:0.06em;}.cls-4{letter-spacing:0.01em;}</style></defs><title>AKD-STAR-F</title><path class="cls-1" d="M161.35,233.46c-4.27-33.35-16.36-74.84-49.25-89.19,14.56.32,30.25,4.65,39.17,10.86,4.65-7,8.92-23.11,10.08-34.13,1.16,11,5.43,27.15,10.08,34.13,8.92-6.2,24.61-10.54,39.17-10.86C177.7,158.62,165.61,200.11,161.35,233.46Z" transform="translate(-10 -16)"/><path class="cls-1" d="M161.35,104c-2.83-18.95-10.84-42.52-32.65-50.67,9.65.18,20.05,2.64,26,6.17,3.09-4,5.91-37.24,6.68-43.5.77,6.26,3.6,39.53,6.68,43.5,5.91-3.52,16.32-6,26-6.17C172.19,61.48,164.18,85.05,161.35,104Z" transform="translate(-10 -16)"/><path class="cls-1" d="M180.77,135.31c5-18.68,22.47-34.15,29.89-36.86s-.34,7.58,3.19,6.95,19.94-5.65,43.15,7.94C227.21,111.88,203,121,180.77,135.31Z" transform="translate(-10 -16)"/><path class="cls-1" d="M141.51,135.31c-5-18.68-22.47-34.15-29.89-36.86s.34,7.58-3.19,6.95-19.94-5.65-43.15,7.94C95.06,111.88,119.28,121,141.51,135.31Z" transform="translate(-10 -16)"/><path class="cls-1" d="M255,198.5c-12.77,32.89-49.68,45-79.36,49.25C205.32,252,242.23,264.11,255,297c-.28-14.56-8.68-40.58-14.2-49.5C246.32,238.58,254.72,213.06,255,198.5Z" transform="translate(-10 -16)"/><path class="cls-1" d="M264.23,224.23c10.2-7.56,26.94-29,29.4-44.7.57-9.46-10.82,9.5-12.52,7.09-3.3-7.32-10.4-12.84-13.89-13.06C271.06,190.92,272.93,205.25,264.23,224.23Z" transform="translate(-10 -16)"/><path class="cls-1" d="M264.23,271.65c10.2,7.56,26.94,29,29.4,44.7.57,9.46-10.82-9.5-12.52-7.09-3.3,7.32-10.4,12.84-13.89,13.06C271.06,305,272.93,290.63,264.23,271.65Z" transform="translate(-10 -16)"/><path class="cls-1" d="M263,247.83c11.63-2.7,30.09-12.35,35.09-33.17-.11,9.22-3.62,22.15-5.79,27.79,2.43,2.95,16.85,4.65,20.69,5.38-3.84.74-18.26,2.44-20.69,5.38,2.16,5.65,5.67,18.58,5.79,27.79C293.09,260.18,274.63,250.53,263,247.83Z" transform="translate(-10 -16)"/><path class="cls-1" d="M68,198.5c12.77,32.89,49.68,45,79.36,49.25C117.68,252,80.77,264.11,68,297c.28-14.56,8.68-40.58,14.2-49.5C76.68,238.58,68.28,213.06,68,198.5Z" transform="translate(-10 -16)"/><path class="cls-1" d="M58.77,224.23c-10.2-7.56-26.94-29-29.4-44.7-.57-9.46,10.82,9.5,12.52,7.09,3.3-7.32,10.4-12.84,13.89-13.06C51.94,190.92,50.07,205.25,58.77,224.23Z" transform="translate(-10 -16)"/><path class="cls-1" d="M58.77,271.65c-10.2,7.56-26.94,29-29.4,44.7-.57,9.46,10.82-9.5,12.52-7.09,3.3,7.32,10.4,12.84,13.89,13.06C51.94,305,50.07,290.63,58.77,271.65Z" transform="translate(-10 -16)"/><path class="cls-1" d="M60,247.83c-11.63-2.7-30.09-12.35-35.09-33.17.11,9.22,3.62,22.15,5.79,27.79-2.43,2.95-16.85,4.65-20.69,5.38,3.84.74,18.26,2.44,20.69,5.38C28.53,258.85,25,271.79,24.91,281,29.91,260.18,48.37,250.53,60,247.83Z" transform="translate(-10 -16)"/><path class="cls-1" d="M161.35,261c-6.65,39-20.84,70.53-65.65,85.19,19.41-.32,40.32-3.65,52.21-9.86,6.2,7,12,421.14,13.59,432.17,1.55-11,7.08-425.19,13.29-432.17,11.89,6.2,32.8,9.54,52.21,9.86C182.19,331.53,168,300,161.35,261Z" transform="translate(-10 -16)"/><path class="cls-1" d="M177.11,390.56c4.82,14.93,18.82,26.45,24.53,28.19s-.71-6.17,2-5.87,15.22,3.35,31.74-9.2C213.19,406.75,194.56,400.81,177.11,390.56Z" transform="translate(-10 -16)"/><path class="cls-1" d="M180.22,366.6c10.28,13.48,40.35,24.45,59.94,22.52,11.72-2.62-10.94-6.84-8.12-10.46,14.59-8.67,22-29.94,22-35.61C234.34,360.66,204,373.59,180.22,366.6Z" transform="translate(-10 -16)"/><path class="cls-1" d="M177.91,419c5,18.14,15.25,38.72,26.14,47.41-3.23-6.13-5.73-12.47-6.08-19.41,2.36.12,6.67-1.08,12-4.13C196.33,440.94,191,435.44,177.91,419Z" transform="translate(-10 -16)"/><path class="cls-1" d="M145.15,390.56c-4.82,14.93-18.82,26.45-24.53,28.19s.71-6.17-2-5.87-15.22,3.35-31.74-9.2C109.07,406.75,127.7,400.81,145.15,390.56Z" transform="translate(-10 -16)"/><path class="cls-1" d="M142,366.6c-10.28,13.48-40.35,24.45-59.94,22.52-11.72-2.62,10.94-6.84,8.12-10.46-14.59-8.67-22-29.94-22-35.61C87.92,360.66,118.25,373.59,142,366.6Z" transform="translate(-10 -16)"/><path class="cls-1" d="M144.35,419c-5,18.14-15.25,38.72-26.14,47.41,3.23-6.13,5.73-12.47,6.08-19.41-2.36.12-6.67-1.08-12-4.13C125.92,440.94,131.28,435.44,144.35,419Z" transform="translate(-10 -16)"/><text class="cls-2" transform="translate(67.11 581.39)">Z.</text><text class="cls-2" transform="translate(182.97 581.39)"><tspan class="cls-3">K</tspan><tspan x="45.81" y="0">.</tspan></text><text class="cls-2" transform="translate(67.1 714.2)"><tspan class="cls-3">K</tspan><tspan x="45.81" y="0">.</tspan></text><text class="cls-2" transform="translate(170.96 714.2)"><tspan class="cls-4">M</tspan><tspan x="58.29" y="0">.</tspan></text></svg>