<svg style="display:none" version="1.1" xmlns="http://www.w3.org/2000/svg" xmlns:xlink="http://www.w3.org/1999/xlink">
    <symbol id="logo" viewBox="0 0 322 780">
        <title>AKD-STAR-F</title>
        <path class="a"
              d="M151.26,155.13c-8.92-6.2-24.61-10.54-39.17-10.86,32.89,14.35,45,55.84,49.25,89.19,4.27-33.35,16.36-74.84,49.25-89.19-14.56.32-30.25,4.65-39.17,10.86-4.65-7-8.92-23.11-10.08-34.13C160.18,132,155.92,148.15,151.26,155.13Z"/>
        <path class="a"
              d="M161.35,104c2.83-18.95,10.84-42.52,32.65-50.67-9.65.18-20.05,2.64-26,6.17-3.09-4-5.91-37.24-6.68-43.5-.77,6.26-3.6,39.53-6.68,43.5-5.91-3.52-16.32-6-26-6.17C150.5,61.48,158.52,85.05,161.35,104Z"/>
        <path class="a"
              d="M213.85,105.4c-3.52.64,4.24-9.66-3.19-6.95s-24.94,18.18-29.89,36.86C203,121,227.21,111.88,257,113.34,233.79,99.75,217.37,104.77,213.85,105.4Z"/>
        <path class="a"
              d="M141.51,135.31c-5-18.68-22.47-34.15-29.89-36.86s.34,7.58-3.19,6.95-19.94-5.65-43.15,7.94C95.06,111.88,119.28,121,141.51,135.31Z"/>
        <path class="a"
              d="M175.64,247.75C205.32,252,242.23,264.11,255,297c-.28-14.56-8.68-40.58-14.2-49.5,5.52-8.92,13.91-34.44,14.2-49C242.23,231.39,205.32,243.48,175.64,247.75Z"/>
        <path class="a"
              d="M293.63,179.53c.57-9.46-10.82,9.5-12.52,7.09-3.3-7.32-10.4-12.84-13.89-13.06,3.84,17.37,5.71,31.7-3,50.68C274.43,216.67,291.17,195.22,293.63,179.53Z"/>
        <path class="a"
              d="M264.23,271.65c8.7,19,6.83,33.31,3,50.68,3.49-.23,10.59-5.75,13.89-13.06,1.7-2.41,13.09,16.55,12.52,7.09C291.17,300.66,274.43,279.21,264.23,271.65Z"/>
        <path class="a"
              d="M313,247.83c-3.84-.74-18.26-2.44-20.69-5.38,2.16-5.65,5.67-18.58,5.79-27.79-5,20.82-23.47,30.47-35.09,33.17,11.63,2.7,30.09,12.35,35.09,33.17-.11-9.22-3.62-22.15-5.79-27.79C294.74,250.26,309.16,248.56,313,247.83Z"/>
        <path class="a"
              d="M147.36,247.75C117.68,243.48,80.77,231.39,68,198.5c.28,14.56,8.68,40.08,14.2,49C76.68,256.42,68.28,282.44,68,297,80.77,264.11,117.68,252,147.36,247.75Z"/>
        <path class="a"
              d="M58.77,224.23c-8.7-19-6.83-33.31-3-50.68-3.49.23-10.59,5.75-13.89,13.06-1.7,2.41-13.09-16.55-12.52-7.09C31.83,195.22,48.57,216.67,58.77,224.23Z"/>
        <path class="a"
              d="M29.37,316.35c-.57,9.46,10.82-9.5,12.52-7.09,3.3,7.32,10.4,12.84,13.89,13.06-3.84-17.37-5.71-31.7,3-50.68C48.57,279.21,31.83,300.66,29.37,316.35Z"/>
        <path class="a"
              d="M24.91,214.65c.11,9.22,3.62,22.15,5.79,27.79-2.43,2.95-16.85,4.65-20.69,5.38,3.84.74,18.26,2.44,20.69,5.38C28.53,258.85,25,271.79,24.91,281c5-20.82,23.47-30.47,35.09-33.17C48.37,245.13,29.91,235.47,24.91,214.65Z"/>
        <path class="a"
              d="M161.35,261c-6.65,39-20.84,70.53-65.65,85.19,19.41-.32,40.32-3.65,52.21-9.86,6.2,7,12,421.14,13.59,432.17,1.55-11,7.08-425.19,13.29-432.17,11.89,6.2,32.8,9.54,52.21,9.86C182.19,331.53,168,300,161.35,261Z"/>
        <path class="a"
              d="M203.6,412.88c2.67.3,15.22,3.35,31.74-9.2-22.15,3.07-40.78-2.88-58.23-13.12,4.82,14.93,18.82,26.45,24.53,28.19S200.93,412.58,203.6,412.88Z"/>
        <path class="a"
              d="M180.22,366.6c10.28,13.48,40.35,24.45,59.94,22.52,11.72-2.62-10.94-6.84-8.12-10.46,14.59-8.67,22-29.94,22-35.61C234.34,360.66,204,373.59,180.22,366.6Z"/>
        <path class="a"
              d="M204.05,466.38c-3.23-6.13-5.73-12.47-6.08-19.41,2.36.12,6.67-1.08,12-4.13-13.67-1.9-19-7.4-32.09-23.87C182.88,437.11,193.16,457.69,204.05,466.38Z"/>
        <path class="a"
              d="M86.92,403.68c16.51,12.55,29.07,9.49,31.74,9.2s-3.74,7.61,2,5.87,19.71-13.26,24.53-28.19C127.7,400.81,109.07,406.75,86.92,403.68Z"/>
        <path class="a"
              d="M142,366.6c-23.78,7-54.12-5.93-73.78-23.54,0,5.66,7.37,26.93,22,35.61,2.82,3.62-19.84,7.84-8.12,10.46C101.69,391,131.75,380.08,142,366.6Z"/>
        <path class="a"
              d="M112.25,442.84c5.36,3.06,9.68,4.26,12,4.13-.35,6.94-2.86,13.27-6.08,19.41,10.89-8.69,21.17-29.27,26.14-47.41C131.28,435.44,125.92,440.94,112.25,442.84Z"/>
        <path class="a"
              d="M111.81,596.24a36,36,0,0,0,1.1-6.32c0-1-.11-1.27-.44-1.27s-.38.33-.5.88a8.86,8.86,0,0,1-1.1,3c-1.15,1.65-2.91,2.7-8.69,2.7h-15c8.36-12.65,16.66-25.3,24.64-37.95a.93.93,0,0,0,.22-.66c0-.33-.28-.44-1.1-.44H95.65c-1.71,0-4.34.05-9.57-.17a15.23,15.23,0,0,1-2.31-.39c-.33,0-.44.28-.55,1-.27,1.65-1.1,6.65-1.1,7.31,0,.44.06.71.33.71s.49-.17.6-1a6.19,6.19,0,0,1,3.13-4.34c1.76-.94,5.11-1.1,7.92-1.1H106C98.4,570.67,90.09,583,81.9,595.42c-.66,1-.77,1.26-.77,1.54s.33.44,1,.44c9.62,0,18.86.28,28,.28C111.43,597.67,111.48,597.56,111.81,596.24Z"/>
        <path class="a" d="M122.1,592a2.88,2.88,0,0,0-2.91,2.92,2.86,2.86,0,1,0,5.72-.05A2.73,2.73,0,0,0,122.1,592Z"/>
        <path class="a"
              d="M238,596.79a7.51,7.51,0,0,1-1.59-.17c-2.64-.5-4.56-1.71-9.07-5.94-2.58-2.42-12.59-12.59-16.06-16.39,1.43-1.59,7.7-7.81,12.54-12.48,3.3-3.19,4.34-3.85,5.72-4.4a10,10,0,0,1,2.8-.66c.5-.05.6-.17.6-.38s-.16-.38-.93-.38-4.12.17-5.83.17c-1.87,0-1.71-.17-3.3-.17-.5,0-.83.11-.83.33s.11.33.5.49a1.13,1.13,0,0,1,.71,1c0,.66-.22,1.21-3.52,4.62s-10.83,11.33-12.54,13v-3.52c0-8.58,0-10.12.11-11.88.11-1.92.55-3,2-3.19l1.21-.11c.5-.05.6-.17.6-.38s-.27-.38-.88-.38c-1.65,0-5.12.17-5.39.17s-4-.17-5.77-.17c-.6,0-.88.11-.88.44s.17.33.6.33a9.42,9.42,0,0,1,2,.22c1.21.28,1.76,1.21,1.87,3.08s.11,3.3.11,11.88v9.68c0,5.28,0,9.62-.27,11.93-.22,1.59-.55,2.86-1.65,3.08a7.64,7.64,0,0,1-1.43.17c-.5,0-.61.22-.61.38,0,.33.28.38.88.38,1.65,0,4.89-.17,5.17-.17s3.74.17,6.76.17c.6,0,.82-.11.82-.38s-.17-.38-.66-.38c-.33,0-1.43-.11-2.2-.22-1.65-.22-2-1.43-2.14-3-.28-2.31-.28-6.65-.28-11.93v-5.66c4.84,5.77,14.74,16.39,18,19,2.59,2,3.85,2.64,8.63,2.64h4.07c.6,0,.83-.11.83-.38S238.4,596.79,238,596.79Z"/>
        <path class="a"
              d="M245.66,597.83a2.83,2.83,0,0,0,2.86-3,2.73,2.73,0,0,0-2.8-2.86,2.88,2.88,0,0,0-2.91,2.92A2.84,2.84,0,0,0,245.66,597.83Z"/>
        <path class="a"
              d="M122.08,729.59a7.51,7.51,0,0,1-1.59-.17c-2.64-.5-4.56-1.71-9.07-5.94-2.58-2.42-12.59-12.59-16.06-16.39,1.43-1.59,7.7-7.81,12.54-12.48,3.3-3.19,4.34-3.85,5.72-4.4a10,10,0,0,1,2.8-.66c.49-.05.6-.17.6-.38s-.17-.38-.94-.38-4.12.17-5.83.17c-1.87,0-1.71-.17-3.3-.17-.49,0-.82.11-.82.33s.11.33.5.49a1.13,1.13,0,0,1,.71,1c0,.66-.22,1.21-3.52,4.62s-10.83,11.33-12.54,13v-3.52c0-8.58,0-10.12.11-11.88.11-1.92.55-3,2-3.19l1.21-.11c.5-.05.6-.17.6-.38s-.27-.38-.88-.38c-1.65,0-5.11.17-5.39.17s-4-.17-5.77-.17c-.6,0-.88.11-.88.44s.17.33.6.33a9.41,9.41,0,0,1,2,.22c1.21.28,1.76,1.21,1.87,3.08s.11,3.3.11,11.88v9.68c0,5.28,0,9.62-.27,11.93-.22,1.59-.55,2.86-1.65,3.08a7.64,7.64,0,0,1-1.43.17c-.49,0-.6.22-.6.38,0,.33.27.38.88.38,1.65,0,4.89-.17,5.17-.17s3.74.17,6.76.17c.6,0,.82-.11.82-.38s-.17-.38-.66-.38c-.33,0-1.43-.11-2.2-.22-1.65-.22-2-1.43-2.15-3-.27-2.31-.27-6.65-.27-11.93v-5.66c4.84,5.77,14.74,16.39,18,19,2.58,2,3.85,2.64,8.63,2.64H122c.6,0,.82-.11.82-.38S122.52,729.59,122.08,729.59Z"/>
        <path class="a"
              d="M129.84,724.81a2.88,2.88,0,0,0-2.91,2.92,2.86,2.86,0,1,0,5.72-.05A2.73,2.73,0,0,0,129.84,724.81Z"/>
        <path class="a"
              d="M238,729.59a11,11,0,0,1-3.41-.5c-2.37-.77-2.75-3.85-3-5.83L228,689.5c-.11-1-.28-1.49-.66-1.49s-.6.39-.82.88l-16.17,34.54L193.5,688.84c-.28-.6-.49-.83-.82-.83s-.55.5-.61,1.1l-4,35.75c-.27,2.25-.38,4.23-2.2,4.56a7.06,7.06,0,0,1-1.65.17c-.28,0-.55.11-.55.33,0,.39.39.44.94.44,1.48,0,4.12-.17,4.62-.17s3.24.17,5.28.17c.55,0,.83-.11.83-.5,0-.17-.22-.27-.55-.27a8.24,8.24,0,0,1-2-.22c-.82-.17-1.48-.6-1.48-2,0-.93.05-1.71.11-2.58l2.26-25.9c.6,1.49,6.93,15.07,7.42,16.06.27.55,5,10.06,6.43,12.76,1,2,1.32,2.53,1.71,2.53s.66-.5,1.81-2.91l13.64-28.93,2.64,28.71c.11,1,.17,1.81-.22,2s-.38.17-.38.38.27.44,1.54.55c2,.17,8.3.33,9.51.33.66,0,.83-.11.83-.44S238.32,729.59,238,729.59Z"/>
        <path class="a"
              d="M246.18,724.81a2.88,2.88,0,0,0-2.91,2.92,2.86,2.86,0,1,0,5.72-.05A2.73,2.73,0,0,0,246.18,724.81Z"/>
    </symbol>
</svg>