<?xml version="1.0" encoding="utf-8"?>
<!-- Generator: Adobe Illustrator 21.1.0, SVG Export Plug-In . SVG Version: 6.00 Build 0)  -->
<!DOCTYPE svg PUBLIC "-//W3C//DTD SVG 1.1//EN" "http://www.w3.org/Graphics/SVG/1.1/DTD/svg11.dtd">
<svg version="1.1" id="图层_1" xmlns="http://www.w3.org/2000/svg" xmlns:xlink="http://www.w3.org/1999/xlink" x="0px" y="0px"
	 viewBox="0 0 27.3 128" style="enable-background:new 0 0 27.3 128;" xml:space="preserve">
<style type="text/css">
	.st0{fill:#F7F8F8;}
</style>
<title>未标题-1</title>
<path class="st0" d="M27.3,0C27.2,0,27.2,0,27.3,0c-4.2,1.3-8.5,2.5-12.7,3.3c-0.2,0-0.2,0.2-0.2,0.4C14.7,5.1,15,6.6,15.2,8
	c0,0.2,0.1,0.3,0.3,0.4c2.1,1.4,4.2,2.9,6.3,4.3c0.3,0.2,0.4,0.4,0.4,0.7c0,0.6,0.5,14.4,0.7,17.1c0.2,0.9-0.2,1.8-1.1,2.1
	c-0.1,0.1-0.3,0.1-0.4,0.1c-2.7-0.5-5.2-1.3-7.8-2.1c-0.3-0.1-0.5-0.3-0.5-0.6c-0.2-1.9-0.4-3.9-0.7-5.8c-0.1-0.3-0.1-0.4-0.5-0.4
	c-3,0.5-6,0.9-9.1,0H0.6c-0.2,0.9-0.4,0.7-0.5,1c-0.1,0.2,0.1,0.3,0.2,0.4c0.2,0.3,0.5,0.6,0.7,1.1c4.5,6.4,7.9,13.5,10.2,20.9
	c0.1,0.2,0.2,0.3,0.4,0.2c0.7-0.4,1.6-0.7,2.5-0.9c0.3,0,0.3-0.2,0.3-0.4c-0.1-1.3-0.3-6.6-0.4-8c0-0.2,0.1-0.4,0.2-0.5
	c0.3-0.3,0.7-0.5,1.1-0.9c0.2-0.2,0.4-0.2,0.6-0.1c1.1,0.5,2.4,1.1,3.4,1.7c1.5,0.9,3.1,1.5,4,3c0.2,0.2,0.2,0.5,0.3,0.9
	c0.1,1.5,2.9,65.5,3.7,85.8V0z"/>
</svg>
