<svg id="图层_1" data-name="图层 1" xmlns="http://www.w3.org/2000/svg" viewBox="0 0 51.73 125.4"><defs><style>.cls-1{fill:#ee1c22;}</style></defs><title>未标题-1</title><g id="kIDeY0.tif"><path class="cls-1" d="M89.87,24.53a33,33,0,0,0-2.12,3.06A72.81,72.81,0,0,0,80.8,41a45.22,45.22,0,0,0-1.44,4.38c-.08.28-.16.36-.45.2a5.54,5.54,0,0,0-2.19-.73c-.28,0-.31-.18-.3-.4.06-1.12.3-5.43.36-6.47,0-.34,0-.69.07-1a.5.5,0,0,0-.22-.47c-.36-.28-.72-.56-1.07-.85a.47.47,0,0,0-.57-.06c-1.89.93-3.77,1.85-5.57,3-.49.3-.73.82-1.12,1.21a1.91,1.91,0,0,0-.5,1.37c-.1,2.66-3.91,85.78-3.92,85.6-.06-1.45-3.72-84.33-3.78-85.93a1.6,1.6,0,0,0-.27-.78c-.87-1.45-2.34-2.09-3.73-2.84-1-.56-2.11-1.06-3.16-1.6a.47.47,0,0,0-.6.06c-.33.29-.68.56-1,.83a.57.57,0,0,0-.24.54c.09,1.31.37,6.29.44,7.47,0,.2,0,.36-.27.39a5.82,5.82,0,0,0-2.26.75c-.22.12-.31.08-.38-.17a67.84,67.84,0,0,0-9.53-19.53c-.23-.35-.48-.68-.72-1-.08-.13-.28-.25-.19-.4s.29-.06.45-.06h2.14a49.89,49.89,0,0,0,8.5-.85c.37-.07.45.07.5.37.26,1.8.5,3.6.67,5.41a.6.6,0,0,0,.47.57,62.81,62.81,0,0,0,7.33,2,.54.54,0,0,0,.39-.06A1.58,1.58,0,0,0,59.65,30c-.23-2.55-.72-15.41-.72-16a.82.82,0,0,0-.4-.73c-2-1.33-3.91-2.68-5.87-4a.65.65,0,0,1-.3-.43q-.42-2-.85-4c0-.23,0-.36.25-.41A115.85,115.85,0,0,0,63.59,1.37a1.16,1.16,0,0,1,.79,0c3.36,1.12,11.25,3,11.76,3.06.25,0,.34.12.28.38q-.44,2-.86,4a.79.79,0,0,1-.39.5c-1.92,1.31-3.83,2.64-5.75,3.94A.84.84,0,0,0,69,14c-.08,2-.69,16-.74,16.68a.66.66,0,0,0,.31.61,2.05,2.05,0,0,0,2,.37c2.16-.54,4.32-1.06,6.43-1.77a.68.68,0,0,0,.52-.69c.17-1.8.41-3.59.67-5.37,0-.29.16-.38.47-.32a51.84,51.84,0,0,0,9,.87c.74,0,1.47,0,2.21,0Z" transform="translate(-38.13 -1.3)"/></g></svg>